<svg xmlns="http://www.w3.org/2000/svg" xmlns:xlink="http://www.w3.org/1999/xlink" width="200" zoomAndPan="magnify" viewBox="0 0 150 74.999997" height="100" preserveAspectRatio="xMidYMid meet" version="1.2"><defs><clipPath id="c0fdd1e49b"><path d="M 108.425781 23.949219 L 129 23.949219 L 129 44.652344 L 108.425781 44.652344 Z M 108.425781 23.949219 "/></clipPath><clipPath id="7eb2d87b8b"><path d="M 122.371094 19.691406 L 128.972656 19.691406 L 128.972656 26.292969 L 122.371094 26.292969 Z M 122.371094 19.691406 "/></clipPath><clipPath id="150d0b07d2"><path d="M 112 10 L 125 10 L 125 24 L 112 24 Z M 112 10 "/></clipPath><clipPath id="33e6dd3c82"><path d="M 111.757812 11.902344 L 123.914062 10.023438 L 125.792969 22.179688 L 113.636719 24.058594 Z M 111.757812 11.902344 "/></clipPath><clipPath id="7fbb496ade"><path d="M 111.757812 11.902344 L 123.914062 10.023438 L 125.792969 22.179688 L 113.636719 24.058594 Z M 111.757812 11.902344 "/></clipPath><clipPath id="48cd25498e"><path d="M 116 14 L 122 14 L 122 20 L 116 20 Z M 116 14 "/></clipPath><clipPath id="10fdb7d09a"><path d="M 111.757812 11.902344 L 123.914062 10.023438 L 125.792969 22.179688 L 113.636719 24.058594 Z M 111.757812 11.902344 "/></clipPath><clipPath id="7dd5862107"><path d="M 111.757812 11.902344 L 123.914062 10.023438 L 125.792969 22.179688 L 113.636719 24.058594 Z M 111.757812 11.902344 "/></clipPath></defs><g id="67c7bcf30d"><g style="fill:#3260ec;fill-opacity:1;"><g transform="translate(0.000003, 51.969852)"><path style="stroke:none" d="M 1.125 -15.53125 L 1.125 -17.34375 C 1.125 -20.664062 1.789062 -23.535156 3.125 -25.953125 C 4.46875 -28.367188 6.367188 -30.238281 8.828125 -31.5625 C 11.285156 -32.882812 14.226562 -33.546875 17.65625 -33.546875 C 22.488281 -33.546875 26.285156 -32.289062 29.046875 -29.78125 C 31.804688 -27.28125 33.382812 -23.804688 33.78125 -19.359375 L 24.453125 -19.359375 C 23.765625 -23.566406 21.46875 -25.671875 17.5625 -25.671875 C 15.394531 -25.671875 13.632812 -24.941406 12.28125 -23.484375 C 10.9375 -22.023438 10.265625 -19.898438 10.265625 -17.109375 L 10.265625 -15.765625 C 10.265625 -12.972656 10.9375 -10.847656 12.28125 -9.390625 C 13.632812 -7.929688 15.394531 -7.203125 17.5625 -7.203125 C 21.46875 -7.203125 23.765625 -9.304688 24.453125 -13.515625 L 33.78125 -13.515625 C 33.382812 -9.066406 31.804688 -5.585938 29.046875 -3.078125 C 26.285156 -0.578125 22.488281 0.671875 17.65625 0.671875 C 14.226562 0.671875 11.285156 0.015625 8.828125 -1.296875 C 6.367188 -2.617188 4.46875 -4.488281 3.125 -6.90625 C 1.789062 -9.320312 1.125 -12.195312 1.125 -15.53125 Z M 1.125 -15.53125 "/></g></g><g style="fill:#3260ec;fill-opacity:1;"><g transform="translate(34.806876, 51.969852)"><path style="stroke:none" d="M 16.296875 -24.546875 C 17.015625 -24.546875 17.628906 -24.492188 18.140625 -24.390625 C 18.648438 -24.285156 19.054688 -24.1875 19.359375 -24.09375 L 19.359375 -14.953125 C 18.910156 -15.015625 18.378906 -15.066406 17.765625 -15.109375 C 17.148438 -15.148438 16.484375 -15.171875 15.765625 -15.171875 C 14.109375 -15.171875 12.957031 -14.75 12.3125 -13.90625 C 11.664062 -13.070312 11.34375 -11.601562 11.34375 -9.5 L 11.34375 0 L 2.609375 0 L 2.609375 -23.859375 L 6.671875 -23.859375 L 9.546875 -16.578125 C 10.085938 -19.515625 10.976562 -21.578125 12.21875 -22.765625 C 13.46875 -23.953125 14.828125 -24.546875 16.296875 -24.546875 Z M 16.296875 -24.546875 "/></g></g><g style="fill:#3260ec;fill-opacity:1;"><g transform="translate(54.844461, 51.969852)"><path style="stroke:none" d="M 14.28125 0.671875 C 11.507812 0.671875 9.140625 0.171875 7.171875 -0.828125 C 5.210938 -1.835938 3.710938 -3.25 2.671875 -5.0625 C 1.640625 -6.882812 1.125 -8.992188 1.125 -11.390625 L 1.125 -12.46875 C 1.125 -14.875 1.640625 -16.984375 2.671875 -18.796875 C 3.710938 -20.617188 5.210938 -22.03125 7.171875 -23.03125 C 9.140625 -24.039062 11.507812 -24.546875 14.28125 -24.546875 C 17.039062 -24.546875 19.398438 -24.039062 21.359375 -23.03125 C 23.328125 -22.03125 24.828125 -20.617188 25.859375 -18.796875 C 26.898438 -16.984375 27.421875 -14.875 27.421875 -12.46875 L 27.421875 -11.390625 C 27.421875 -8.992188 26.898438 -6.882812 25.859375 -5.0625 C 24.828125 -3.25 23.328125 -1.835938 21.359375 -0.828125 C 19.398438 0.171875 17.039062 0.671875 14.28125 0.671875 Z M 14.28125 -6.578125 C 15.65625 -6.578125 16.738281 -7.019531 17.53125 -7.90625 C 18.332031 -8.789062 18.734375 -10.160156 18.734375 -12.015625 C 18.734375 -13.796875 18.332031 -15.117188 17.53125 -15.984375 C 16.738281 -16.859375 15.65625 -17.296875 14.28125 -17.296875 C 12.894531 -17.296875 11.800781 -16.859375 11 -15.984375 C 10.207031 -15.117188 9.8125 -13.796875 9.8125 -12.015625 C 9.8125 -10.160156 10.207031 -8.789062 11 -7.90625 C 11.800781 -7.019531 12.894531 -6.578125 14.28125 -6.578125 Z M 14.28125 -6.578125 "/></g></g><g style="fill:#3260ec;fill-opacity:1;"><g transform="translate(83.032166, 51.969852)"><path style="stroke:none" d="M 26.15625 -10.53125 L 29.625 -23.859375 L 38.1875 -23.859375 L 31.03125 0 L 23.421875 0 L 19 -12.296875 L 14.546875 0 L 6.9375 0 L -0.21875 -23.859375 L 8.375 -23.859375 L 11.796875 -10.453125 L 16.578125 -23.859375 L 21.4375 -23.859375 Z M 26.15625 -10.53125 "/></g></g><g style="fill:#3260ec;fill-opacity:1;"><g transform="translate(120.991014, 51.969852)"><path style="stroke:none" d="M 18.109375 -24.546875 C 20.679688 -24.546875 22.800781 -23.632812 24.46875 -21.8125 C 26.132812 -20 26.96875 -17.351562 26.96875 -13.875 L 26.96875 0 L 18.328125 0 L 18.328125 -12.609375 C 18.328125 -14.203125 18.054688 -15.3125 17.515625 -15.9375 C 16.972656 -16.570312 16.175781 -16.890625 15.125 -16.890625 C 14.019531 -16.890625 13.101562 -16.472656 12.375 -15.640625 C 11.65625 -14.816406 11.296875 -13.566406 11.296875 -11.890625 L 11.296875 0 L 2.609375 0 L 2.609375 -23.859375 L 6.671875 -23.859375 L 9.546875 -16.796875 C 10.148438 -19.460938 11.21875 -21.421875 12.75 -22.671875 C 14.28125 -23.921875 16.066406 -24.546875 18.109375 -24.546875 Z M 18.109375 -24.546875 "/></g></g><g clip-rule="nonzero" clip-path="url(#c0fdd1e49b)"><path style=" stroke:none;fill-rule:nonzero;fill:#ffffff;fill-opacity:1;" d="M 129 34.238281 C 120.316406 35.125 119.601562 35.84375 118.710938 44.523438 C 117.824219 35.84375 117.105469 35.125 108.425781 34.238281 C 117.105469 33.351562 117.824219 32.632812 118.710938 23.949219 C 119.601562 32.632812 120.316406 33.347656 129 34.238281 Z M 129 34.238281 "/></g><path style=" stroke:none;fill-rule:nonzero;fill:#ffffff;fill-opacity:1;" d="M 118.710938 29.621094 C 118.320312 32.660156 117.136719 33.847656 114.09375 34.238281 C 117.136719 34.628906 118.320312 35.8125 118.710938 38.855469 C 119.101562 35.8125 120.289062 34.628906 123.328125 34.238281 C 120.285156 33.847656 119.101562 32.660156 118.710938 29.621094 Z M 118.710938 29.621094 "/><g clip-rule="nonzero" clip-path="url(#7eb2d87b8b)"><path style=" stroke:none;fill-rule:nonzero;fill:#5090ff;fill-opacity:1;" d="M 128.972656 22.992188 C 126.1875 23.277344 125.957031 23.507812 125.671875 26.292969 C 125.386719 23.507812 125.15625 23.277344 122.371094 22.992188 C 125.15625 22.707031 125.386719 22.476562 125.671875 19.691406 C 125.957031 22.476562 126.1875 22.707031 128.972656 22.992188 Z M 128.972656 22.992188 "/></g><path style=" stroke:none;fill-rule:nonzero;fill:#5090ff;fill-opacity:1;" d="M 125.671875 21.511719 C 125.546875 22.484375 125.164062 22.867188 124.191406 22.992188 C 125.164062 23.117188 125.546875 23.496094 125.671875 24.472656 C 125.796875 23.496094 126.175781 23.117188 127.152344 22.992188 C 126.175781 22.867188 125.796875 22.484375 125.671875 21.511719 Z M 125.671875 21.511719 "/><g clip-rule="nonzero" clip-path="url(#150d0b07d2)"><g clip-rule="nonzero" clip-path="url(#33e6dd3c82)"><g clip-rule="nonzero" clip-path="url(#7fbb496ade)"><path style=" stroke:none;fill-rule:nonzero;fill:#5090ff;fill-opacity:1;" d="M 124.734375 16.0625 C 119.730469 17.367188 119.375 17.851562 119.640625 23.015625 C 118.335938 18.011719 117.851562 17.660156 112.6875 17.925781 C 117.691406 16.621094 118.046875 16.132812 117.78125 10.972656 C 119.085938 15.972656 119.570312 16.328125 124.734375 16.0625 Z M 124.734375 16.0625 "/></g></g></g><g clip-rule="nonzero" clip-path="url(#48cd25498e)"><g clip-rule="nonzero" clip-path="url(#10fdb7d09a)"><g clip-rule="nonzero" clip-path="url(#7dd5862107)"><path style=" stroke:none;fill-rule:nonzero;fill:#5090ff;fill-opacity:1;" d="M 118.292969 14.289062 C 118.339844 16.105469 117.753906 16.90625 116.007812 17.410156 C 117.824219 17.363281 118.625 17.953125 119.128906 19.695312 C 119.082031 17.878906 119.667969 17.078125 121.414062 16.574219 C 119.59375 16.621094 118.796875 16.035156 118.292969 14.289062 Z M 118.292969 14.289062 "/></g></g></g><g style="fill:#5090ff;fill-opacity:1;"><g transform="translate(34.198828, 61.260884)"><path style="stroke:none" d="M 3.8125 0.125 C 3.125 0.125 2.53125 -0.0234375 2.03125 -0.328125 C 1.539062 -0.640625 1.15625 -1.066406 0.875 -1.609375 C 0.601562 -2.148438 0.46875 -2.78125 0.46875 -3.5 C 0.46875 -4.207031 0.601562 -4.832031 0.875 -5.375 C 1.15625 -5.925781 1.539062 -6.351562 2.03125 -6.65625 C 2.53125 -6.96875 3.125 -7.125 3.8125 -7.125 C 4.613281 -7.125 5.265625 -6.929688 5.765625 -6.546875 C 6.265625 -6.160156 6.585938 -5.625 6.734375 -4.9375 L 5.796875 -4.9375 C 5.691406 -5.375 5.472656 -5.722656 5.140625 -5.984375 C 4.816406 -6.242188 4.375 -6.375 3.8125 -6.375 C 3.3125 -6.375 2.875 -6.257812 2.5 -6.03125 C 2.125 -5.800781 1.832031 -5.472656 1.625 -5.046875 C 1.425781 -4.617188 1.328125 -4.101562 1.328125 -3.5 C 1.328125 -2.894531 1.425781 -2.378906 1.625 -1.953125 C 1.832031 -1.523438 2.125 -1.195312 2.5 -0.96875 C 2.875 -0.738281 3.3125 -0.625 3.8125 -0.625 C 4.375 -0.625 4.816406 -0.75 5.140625 -1 C 5.472656 -1.257812 5.691406 -1.601562 5.796875 -2.03125 L 6.734375 -2.03125 C 6.585938 -1.351562 6.265625 -0.820312 5.765625 -0.4375 C 5.265625 -0.0625 4.613281 0.125 3.8125 0.125 Z M 3.8125 0.125 "/></g></g><g style="fill:#5090ff;fill-opacity:1;"><g transform="translate(41.397688, 61.260884)"><path style="stroke:none" d="M 0.6875 0 L 0.6875 -7.203125 L 1.53125 -7.203125 L 1.53125 0 Z M 0.6875 0 "/></g></g><g style="fill:#5090ff;fill-opacity:1;"><g transform="translate(43.617338, 61.260884)"><path style="stroke:none" d="M 2.921875 0.125 C 2.441406 0.125 2.019531 0.015625 1.65625 -0.203125 C 1.289062 -0.421875 1.003906 -0.722656 0.796875 -1.109375 C 0.585938 -1.492188 0.484375 -1.953125 0.484375 -2.484375 C 0.484375 -3.003906 0.582031 -3.457031 0.78125 -3.84375 C 0.988281 -4.238281 1.273438 -4.539062 1.640625 -4.75 C 2.015625 -4.96875 2.445312 -5.078125 2.9375 -5.078125 C 3.414062 -5.078125 3.828125 -4.96875 4.171875 -4.75 C 4.523438 -4.539062 4.796875 -4.257812 4.984375 -3.90625 C 5.171875 -3.550781 5.265625 -3.171875 5.265625 -2.765625 C 5.265625 -2.691406 5.265625 -2.617188 5.265625 -2.546875 C 5.265625 -2.472656 5.265625 -2.390625 5.265625 -2.296875 L 1.3125 -2.296875 C 1.332031 -1.910156 1.421875 -1.59375 1.578125 -1.34375 C 1.734375 -1.09375 1.925781 -0.90625 2.15625 -0.78125 C 2.394531 -0.65625 2.648438 -0.59375 2.921875 -0.59375 C 3.265625 -0.59375 3.550781 -0.671875 3.78125 -0.828125 C 4.019531 -0.984375 4.191406 -1.203125 4.296875 -1.484375 L 5.125 -1.484375 C 5 -1.023438 4.742188 -0.640625 4.359375 -0.328125 C 3.984375 -0.0234375 3.503906 0.125 2.921875 0.125 Z M 2.921875 -4.375 C 2.515625 -4.375 2.15625 -4.25 1.84375 -4 C 1.539062 -3.757812 1.363281 -3.40625 1.3125 -2.9375 L 4.4375 -2.9375 C 4.414062 -3.382812 4.257812 -3.734375 3.96875 -3.984375 C 3.6875 -4.242188 3.335938 -4.375 2.921875 -4.375 Z M 2.921875 -4.375 "/></g></g><g style="fill:#5090ff;fill-opacity:1;"><g transform="translate(49.306438, 61.260884)"><path style="stroke:none" d="M 2.34375 0.125 C 1.925781 0.125 1.582031 0.0546875 1.3125 -0.078125 C 1.039062 -0.222656 0.835938 -0.410156 0.703125 -0.640625 C 0.566406 -0.878906 0.5 -1.132812 0.5 -1.40625 C 0.5 -1.914062 0.691406 -2.304688 1.078125 -2.578125 C 1.460938 -2.847656 1.988281 -2.984375 2.65625 -2.984375 L 4 -2.984375 L 4 -3.046875 C 4 -3.484375 3.882812 -3.8125 3.65625 -4.03125 C 3.425781 -4.257812 3.125 -4.375 2.75 -4.375 C 2.425781 -4.375 2.144531 -4.289062 1.90625 -4.125 C 1.664062 -3.957031 1.515625 -3.71875 1.453125 -3.40625 L 0.59375 -3.40625 C 0.632812 -3.769531 0.757812 -4.070312 0.96875 -4.3125 C 1.175781 -4.5625 1.4375 -4.75 1.75 -4.875 C 2.0625 -5.007812 2.394531 -5.078125 2.75 -5.078125 C 3.445312 -5.078125 3.96875 -4.890625 4.3125 -4.515625 C 4.664062 -4.148438 4.84375 -3.660156 4.84375 -3.046875 L 4.84375 0 L 4.09375 0 L 4.046875 -0.890625 C 3.898438 -0.609375 3.691406 -0.367188 3.421875 -0.171875 C 3.148438 0.0234375 2.789062 0.125 2.34375 0.125 Z M 2.46875 -0.59375 C 2.789062 -0.59375 3.066406 -0.675781 3.296875 -0.84375 C 3.523438 -1.007812 3.695312 -1.222656 3.8125 -1.484375 C 3.9375 -1.753906 4 -2.035156 4 -2.328125 L 4 -2.34375 L 2.734375 -2.34375 C 2.234375 -2.34375 1.878906 -2.253906 1.671875 -2.078125 C 1.472656 -1.910156 1.375 -1.703125 1.375 -1.453125 C 1.375 -1.191406 1.46875 -0.984375 1.65625 -0.828125 C 1.851562 -0.671875 2.125 -0.59375 2.46875 -0.59375 Z M 2.46875 -0.59375 "/></g></g><g style="fill:#5090ff;fill-opacity:1;"><g transform="translate(54.715579, 61.260884)"><path style="stroke:none" d="M 0.6875 0 L 0.6875 -4.953125 L 1.453125 -4.953125 L 1.5 -4.0625 C 1.65625 -4.382812 1.882812 -4.632812 2.1875 -4.8125 C 2.488281 -4.988281 2.828125 -5.078125 3.203125 -5.078125 C 3.796875 -5.078125 4.265625 -4.898438 4.609375 -4.546875 C 4.960938 -4.191406 5.140625 -3.644531 5.140625 -2.90625 L 5.140625 0 L 4.296875 0 L 4.296875 -2.8125 C 4.296875 -3.84375 3.867188 -4.359375 3.015625 -4.359375 C 2.585938 -4.359375 2.234375 -4.203125 1.953125 -3.890625 C 1.671875 -3.585938 1.53125 -3.144531 1.53125 -2.5625 L 1.53125 0 Z M 0.6875 0 "/></g></g><g style="fill:#5090ff;fill-opacity:1;"><g transform="translate(60.434672, 61.260884)"><path style="stroke:none" d="M 1.203125 -6.0625 C 1.035156 -6.0625 0.894531 -6.113281 0.78125 -6.21875 C 0.675781 -6.332031 0.625 -6.472656 0.625 -6.640625 C 0.625 -6.796875 0.675781 -6.925781 0.78125 -7.03125 C 0.894531 -7.144531 1.035156 -7.203125 1.203125 -7.203125 C 1.359375 -7.203125 1.492188 -7.144531 1.609375 -7.03125 C 1.722656 -6.925781 1.78125 -6.796875 1.78125 -6.640625 C 1.78125 -6.472656 1.722656 -6.332031 1.609375 -6.21875 C 1.492188 -6.113281 1.359375 -6.0625 1.203125 -6.0625 Z M 0.78125 0 L 0.78125 -4.953125 L 1.625 -4.953125 L 1.625 0 Z M 0.78125 0 "/></g></g><g style="fill:#5090ff;fill-opacity:1;"><g transform="translate(62.824294, 61.260884)"><path style="stroke:none" d="M 0.6875 0 L 0.6875 -4.953125 L 1.453125 -4.953125 L 1.5 -4.0625 C 1.65625 -4.382812 1.882812 -4.632812 2.1875 -4.8125 C 2.488281 -4.988281 2.828125 -5.078125 3.203125 -5.078125 C 3.796875 -5.078125 4.265625 -4.898438 4.609375 -4.546875 C 4.960938 -4.191406 5.140625 -3.644531 5.140625 -2.90625 L 5.140625 0 L 4.296875 0 L 4.296875 -2.8125 C 4.296875 -3.84375 3.867188 -4.359375 3.015625 -4.359375 C 2.585938 -4.359375 2.234375 -4.203125 1.953125 -3.890625 C 1.671875 -3.585938 1.53125 -3.144531 1.53125 -2.5625 L 1.53125 0 Z M 0.6875 0 "/></g></g><g style="fill:#5090ff;fill-opacity:1;"><g transform="translate(68.543387, 61.260884)"><path style="stroke:none" d="M 2.65625 -1.5625 C 2.375 -1.5625 2.113281 -1.597656 1.875 -1.671875 L 1.375 -1.203125 C 1.445312 -1.148438 1.535156 -1.101562 1.640625 -1.0625 C 1.753906 -1.03125 1.914062 -1 2.125 -0.96875 C 2.332031 -0.9375 2.625 -0.90625 3 -0.875 C 3.664062 -0.820312 4.140625 -0.664062 4.421875 -0.40625 C 4.710938 -0.144531 4.859375 0.191406 4.859375 0.609375 C 4.859375 0.898438 4.78125 1.171875 4.625 1.421875 C 4.46875 1.679688 4.226562 1.894531 3.90625 2.0625 C 3.582031 2.226562 3.164062 2.3125 2.65625 2.3125 C 2.207031 2.3125 1.8125 2.253906 1.46875 2.140625 C 1.125 2.023438 0.851562 1.847656 0.65625 1.609375 C 0.46875 1.378906 0.375 1.082031 0.375 0.71875 C 0.375 0.53125 0.421875 0.328125 0.515625 0.109375 C 0.617188 -0.0976562 0.804688 -0.300781 1.078125 -0.5 C 0.929688 -0.5625 0.804688 -0.625 0.703125 -0.6875 C 0.597656 -0.757812 0.503906 -0.84375 0.421875 -0.9375 L 0.421875 -1.15625 L 1.265625 -2 C 0.878906 -2.332031 0.6875 -2.769531 0.6875 -3.3125 C 0.6875 -3.644531 0.757812 -3.941406 0.90625 -4.203125 C 1.0625 -4.472656 1.285156 -4.6875 1.578125 -4.84375 C 1.867188 -5 2.226562 -5.078125 2.65625 -5.078125 C 2.9375 -5.078125 3.195312 -5.035156 3.4375 -4.953125 L 5.265625 -4.953125 L 5.265625 -4.328125 L 4.328125 -4.296875 C 4.523438 -4.015625 4.625 -3.6875 4.625 -3.3125 C 4.625 -2.988281 4.546875 -2.691406 4.390625 -2.421875 C 4.234375 -2.160156 4.007812 -1.953125 3.71875 -1.796875 C 3.425781 -1.640625 3.070312 -1.5625 2.65625 -1.5625 Z M 2.65625 -2.25 C 3.007812 -2.25 3.289062 -2.335938 3.5 -2.515625 C 3.707031 -2.703125 3.8125 -2.96875 3.8125 -3.3125 C 3.8125 -3.65625 3.707031 -3.914062 3.5 -4.09375 C 3.289062 -4.28125 3.007812 -4.375 2.65625 -4.375 C 2.289062 -4.375 2.003906 -4.28125 1.796875 -4.09375 C 1.585938 -3.914062 1.484375 -3.65625 1.484375 -3.3125 C 1.484375 -2.96875 1.585938 -2.703125 1.796875 -2.515625 C 2.003906 -2.335938 2.289062 -2.25 2.65625 -2.25 Z M 1.1875 0.640625 C 1.1875 0.972656 1.328125 1.21875 1.609375 1.375 C 1.890625 1.539062 2.238281 1.625 2.65625 1.625 C 3.070312 1.625 3.40625 1.535156 3.65625 1.359375 C 3.90625 1.179688 4.03125 0.941406 4.03125 0.640625 C 4.03125 0.421875 3.941406 0.234375 3.765625 0.078125 C 3.597656 -0.078125 3.28125 -0.164062 2.8125 -0.1875 C 2.445312 -0.21875 2.128906 -0.253906 1.859375 -0.296875 C 1.585938 -0.140625 1.40625 0.0195312 1.3125 0.1875 C 1.226562 0.351562 1.1875 0.503906 1.1875 0.640625 Z M 1.1875 0.640625 "/></g></g><g style="fill:#5090ff;fill-opacity:1;"><g transform="translate(74.062515, 61.260884)"><path style="stroke:none" d=""/></g></g><g style="fill:#5090ff;fill-opacity:1;"><g transform="translate(76.712097, 61.260884)"><path style="stroke:none" d="M 2.96875 0.125 C 2.457031 0.125 2.007812 0.03125 1.625 -0.15625 C 1.25 -0.34375 0.957031 -0.601562 0.75 -0.9375 C 0.539062 -1.269531 0.4375 -1.65625 0.4375 -2.09375 L 1.3125 -2.09375 C 1.3125 -1.820312 1.375 -1.570312 1.5 -1.34375 C 1.632812 -1.113281 1.820312 -0.929688 2.0625 -0.796875 C 2.3125 -0.660156 2.613281 -0.59375 2.96875 -0.59375 C 3.445312 -0.59375 3.8125 -0.703125 4.0625 -0.921875 C 4.320312 -1.148438 4.453125 -1.4375 4.453125 -1.78125 C 4.453125 -2.0625 4.390625 -2.285156 4.265625 -2.453125 C 4.148438 -2.617188 3.988281 -2.753906 3.78125 -2.859375 C 3.582031 -2.972656 3.351562 -3.066406 3.09375 -3.140625 C 2.832031 -3.222656 2.554688 -3.316406 2.265625 -3.421875 C 1.722656 -3.609375 1.320312 -3.835938 1.0625 -4.109375 C 0.8125 -4.390625 0.6875 -4.753906 0.6875 -5.203125 C 0.675781 -5.578125 0.757812 -5.90625 0.9375 -6.1875 C 1.113281 -6.476562 1.367188 -6.707031 1.703125 -6.875 C 2.035156 -7.039062 2.425781 -7.125 2.875 -7.125 C 3.320312 -7.125 3.710938 -7.039062 4.046875 -6.875 C 4.378906 -6.707031 4.632812 -6.472656 4.8125 -6.171875 C 5 -5.878906 5.09375 -5.550781 5.09375 -5.1875 L 4.21875 -5.1875 C 4.21875 -5.375 4.164062 -5.5625 4.0625 -5.75 C 3.96875 -5.945312 3.816406 -6.101562 3.609375 -6.21875 C 3.410156 -6.34375 3.15625 -6.40625 2.84375 -6.40625 C 2.46875 -6.40625 2.15625 -6.304688 1.90625 -6.109375 C 1.664062 -5.910156 1.546875 -5.632812 1.546875 -5.28125 C 1.546875 -4.976562 1.628906 -4.742188 1.796875 -4.578125 C 1.972656 -4.421875 2.210938 -4.289062 2.515625 -4.1875 C 2.828125 -4.09375 3.179688 -3.976562 3.578125 -3.84375 C 3.910156 -3.71875 4.207031 -3.578125 4.46875 -3.421875 C 4.738281 -3.265625 4.945312 -3.054688 5.09375 -2.796875 C 5.25 -2.546875 5.328125 -2.222656 5.328125 -1.828125 C 5.328125 -1.492188 5.238281 -1.175781 5.0625 -0.875 C 4.894531 -0.582031 4.632812 -0.34375 4.28125 -0.15625 C 3.9375 0.03125 3.5 0.125 2.96875 0.125 Z M 2.96875 0.125 "/></g></g><g style="fill:#5090ff;fill-opacity:1;"><g transform="translate(82.49118, 61.260884)"><path style="stroke:none" d="M 2.921875 0.125 C 2.441406 0.125 2.019531 0.015625 1.65625 -0.203125 C 1.289062 -0.421875 1.003906 -0.722656 0.796875 -1.109375 C 0.585938 -1.492188 0.484375 -1.953125 0.484375 -2.484375 C 0.484375 -3.003906 0.582031 -3.457031 0.78125 -3.84375 C 0.988281 -4.238281 1.273438 -4.539062 1.640625 -4.75 C 2.015625 -4.96875 2.445312 -5.078125 2.9375 -5.078125 C 3.414062 -5.078125 3.828125 -4.96875 4.171875 -4.75 C 4.523438 -4.539062 4.796875 -4.257812 4.984375 -3.90625 C 5.171875 -3.550781 5.265625 -3.171875 5.265625 -2.765625 C 5.265625 -2.691406 5.265625 -2.617188 5.265625 -2.546875 C 5.265625 -2.472656 5.265625 -2.390625 5.265625 -2.296875 L 1.3125 -2.296875 C 1.332031 -1.910156 1.421875 -1.59375 1.578125 -1.34375 C 1.734375 -1.09375 1.925781 -0.90625 2.15625 -0.78125 C 2.394531 -0.65625 2.648438 -0.59375 2.921875 -0.59375 C 3.265625 -0.59375 3.550781 -0.671875 3.78125 -0.828125 C 4.019531 -0.984375 4.191406 -1.203125 4.296875 -1.484375 L 5.125 -1.484375 C 5 -1.023438 4.742188 -0.640625 4.359375 -0.328125 C 3.984375 -0.0234375 3.503906 0.125 2.921875 0.125 Z M 2.921875 -4.375 C 2.515625 -4.375 2.15625 -4.25 1.84375 -4 C 1.539062 -3.757812 1.363281 -3.40625 1.3125 -2.9375 L 4.4375 -2.9375 C 4.414062 -3.382812 4.257812 -3.734375 3.96875 -3.984375 C 3.6875 -4.242188 3.335938 -4.375 2.921875 -4.375 Z M 2.921875 -4.375 "/></g></g><g style="fill:#5090ff;fill-opacity:1;"><g transform="translate(88.18028, 61.260884)"><path style="stroke:none" d="M 0.6875 0 L 0.6875 -4.953125 L 1.453125 -4.953125 L 1.515625 -4.015625 C 1.671875 -4.335938 1.90625 -4.59375 2.21875 -4.78125 C 2.53125 -4.976562 2.914062 -5.078125 3.375 -5.078125 L 3.375 -4.203125 L 3.15625 -4.203125 C 2.851562 -4.203125 2.578125 -4.148438 2.328125 -4.046875 C 2.085938 -3.941406 1.894531 -3.765625 1.75 -3.515625 C 1.601562 -3.273438 1.53125 -2.9375 1.53125 -2.5 L 1.53125 0 Z M 0.6875 0 "/></g></g><g style="fill:#5090ff;fill-opacity:1;"><g transform="translate(91.809705, 61.260884)"><path style="stroke:none" d="M 2.125 0 L 0.234375 -4.953125 L 1.125 -4.953125 L 2.609375 -0.8125 L 4.109375 -4.953125 L 4.96875 -4.953125 L 3.09375 0 Z M 2.125 0 "/></g></g><g style="fill:#5090ff;fill-opacity:1;"><g transform="translate(97.018881, 61.260884)"><path style="stroke:none" d="M 1.203125 -6.0625 C 1.035156 -6.0625 0.894531 -6.113281 0.78125 -6.21875 C 0.675781 -6.332031 0.625 -6.472656 0.625 -6.640625 C 0.625 -6.796875 0.675781 -6.925781 0.78125 -7.03125 C 0.894531 -7.144531 1.035156 -7.203125 1.203125 -7.203125 C 1.359375 -7.203125 1.492188 -7.144531 1.609375 -7.03125 C 1.722656 -6.925781 1.78125 -6.796875 1.78125 -6.640625 C 1.78125 -6.472656 1.722656 -6.332031 1.609375 -6.21875 C 1.492188 -6.113281 1.359375 -6.0625 1.203125 -6.0625 Z M 0.78125 0 L 0.78125 -4.953125 L 1.625 -4.953125 L 1.625 0 Z M 0.78125 0 "/></g></g><g style="fill:#5090ff;fill-opacity:1;"><g transform="translate(99.408503, 61.260884)"><path style="stroke:none" d="M 2.96875 0.125 C 2.5 0.125 2.070312 0.015625 1.6875 -0.203125 C 1.3125 -0.421875 1.015625 -0.722656 0.796875 -1.109375 C 0.585938 -1.503906 0.484375 -1.960938 0.484375 -2.484375 C 0.484375 -3.003906 0.585938 -3.457031 0.796875 -3.84375 C 1.015625 -4.238281 1.3125 -4.539062 1.6875 -4.75 C 2.070312 -4.96875 2.5 -5.078125 2.96875 -5.078125 C 3.550781 -5.078125 4.046875 -4.921875 4.453125 -4.609375 C 4.859375 -4.304688 5.113281 -3.898438 5.21875 -3.390625 L 4.359375 -3.390625 C 4.296875 -3.691406 4.132812 -3.925781 3.875 -4.09375 C 3.613281 -4.269531 3.304688 -4.359375 2.953125 -4.359375 C 2.679688 -4.359375 2.421875 -4.285156 2.171875 -4.140625 C 1.921875 -4.003906 1.71875 -3.796875 1.5625 -3.515625 C 1.414062 -3.234375 1.34375 -2.890625 1.34375 -2.484375 C 1.34375 -2.066406 1.414062 -1.71875 1.5625 -1.4375 C 1.71875 -1.15625 1.921875 -0.941406 2.171875 -0.796875 C 2.421875 -0.660156 2.679688 -0.59375 2.953125 -0.59375 C 3.304688 -0.59375 3.613281 -0.675781 3.875 -0.84375 C 4.132812 -1.007812 4.296875 -1.25 4.359375 -1.5625 L 5.21875 -1.5625 C 5.113281 -1.0625 4.859375 -0.65625 4.453125 -0.34375 C 4.046875 -0.03125 3.550781 0.125 2.96875 0.125 Z M 2.96875 0.125 "/></g></g><g style="fill:#5090ff;fill-opacity:1;"><g transform="translate(105.107601, 61.260884)"><path style="stroke:none" d="M 2.921875 0.125 C 2.441406 0.125 2.019531 0.015625 1.65625 -0.203125 C 1.289062 -0.421875 1.003906 -0.722656 0.796875 -1.109375 C 0.585938 -1.492188 0.484375 -1.953125 0.484375 -2.484375 C 0.484375 -3.003906 0.582031 -3.457031 0.78125 -3.84375 C 0.988281 -4.238281 1.273438 -4.539062 1.640625 -4.75 C 2.015625 -4.96875 2.445312 -5.078125 2.9375 -5.078125 C 3.414062 -5.078125 3.828125 -4.96875 4.171875 -4.75 C 4.523438 -4.539062 4.796875 -4.257812 4.984375 -3.90625 C 5.171875 -3.550781 5.265625 -3.171875 5.265625 -2.765625 C 5.265625 -2.691406 5.265625 -2.617188 5.265625 -2.546875 C 5.265625 -2.472656 5.265625 -2.390625 5.265625 -2.296875 L 1.3125 -2.296875 C 1.332031 -1.910156 1.421875 -1.59375 1.578125 -1.34375 C 1.734375 -1.09375 1.925781 -0.90625 2.15625 -0.78125 C 2.394531 -0.65625 2.648438 -0.59375 2.921875 -0.59375 C 3.265625 -0.59375 3.550781 -0.671875 3.78125 -0.828125 C 4.019531 -0.984375 4.191406 -1.203125 4.296875 -1.484375 L 5.125 -1.484375 C 5 -1.023438 4.742188 -0.640625 4.359375 -0.328125 C 3.984375 -0.0234375 3.503906 0.125 2.921875 0.125 Z M 2.921875 -4.375 C 2.515625 -4.375 2.15625 -4.25 1.84375 -4 C 1.539062 -3.757812 1.363281 -3.40625 1.3125 -2.9375 L 4.4375 -2.9375 C 4.414062 -3.382812 4.257812 -3.734375 3.96875 -3.984375 C 3.6875 -4.242188 3.335938 -4.375 2.921875 -4.375 Z M 2.921875 -4.375 "/></g></g><g style="fill:#5090ff;fill-opacity:1;"><g transform="translate(110.796701, 61.260884)"><path style="stroke:none" d="M 2.59375 0.125 C 2 0.125 1.503906 -0.0234375 1.109375 -0.328125 C 0.710938 -0.628906 0.484375 -1.035156 0.421875 -1.546875 L 1.28125 -1.546875 C 1.332031 -1.285156 1.46875 -1.0625 1.6875 -0.875 C 1.914062 -0.6875 2.21875 -0.59375 2.59375 -0.59375 C 2.945312 -0.59375 3.207031 -0.664062 3.375 -0.8125 C 3.539062 -0.96875 3.625 -1.144531 3.625 -1.34375 C 3.625 -1.644531 3.515625 -1.84375 3.296875 -1.9375 C 3.085938 -2.039062 2.785156 -2.132812 2.390625 -2.21875 C 2.117188 -2.269531 1.847656 -2.34375 1.578125 -2.4375 C 1.316406 -2.539062 1.097656 -2.6875 0.921875 -2.875 C 0.742188 -3.0625 0.65625 -3.300781 0.65625 -3.59375 C 0.65625 -4.03125 0.816406 -4.382812 1.140625 -4.65625 C 1.460938 -4.9375 1.898438 -5.078125 2.453125 -5.078125 C 2.972656 -5.078125 3.398438 -4.945312 3.734375 -4.6875 C 4.078125 -4.425781 4.273438 -4.050781 4.328125 -3.5625 L 3.5 -3.5625 C 3.46875 -3.8125 3.359375 -4.007812 3.171875 -4.15625 C 2.992188 -4.300781 2.75 -4.375 2.4375 -4.375 C 2.132812 -4.375 1.898438 -4.304688 1.734375 -4.171875 C 1.578125 -4.046875 1.5 -3.882812 1.5 -3.6875 C 1.5 -3.476562 1.601562 -3.316406 1.8125 -3.203125 C 2.019531 -3.097656 2.304688 -3.003906 2.671875 -2.921875 C 2.972656 -2.847656 3.257812 -2.765625 3.53125 -2.671875 C 3.8125 -2.578125 4.039062 -2.429688 4.21875 -2.234375 C 4.394531 -2.046875 4.484375 -1.773438 4.484375 -1.421875 C 4.492188 -0.972656 4.328125 -0.601562 3.984375 -0.3125 C 3.640625 -0.0195312 3.175781 0.125 2.59375 0.125 Z M 2.59375 0.125 "/></g></g></g></svg>